<svg width="102" height="199" viewBox="0 0 102 199" fill="none" xmlns="http://www.w3.org/2000/svg">
<g clip-path="url(#clip0_1_352)">
<path d="M28.111 130.289C28.6702 141.037 29.2346 151.789 29.7938 162.537C30.2328 170.985 30.3269 180.449 24.5521 186.619C22.3989 188.923 18.239 191.657 19.7964 194.402C20.2301 195.167 21.9234 196.083 22.7804 196.287C28.5762 197.67 34.0113 198.032 39.6554 196.89C40.9619 196.628 42.0176 196.036 42.9949 195.135C44.4007 193.842 44.9024 192.008 44.986 190.097C45.8797 169.77 46.3814 149.427 46.4911 129.079" fill="#9661FF"/>
<path d="M28.111 130.289C28.6702 141.037 29.2346 151.789 29.7938 162.537C30.2328 170.985 30.3269 180.449 24.5521 186.619C22.3989 188.923 18.239 191.657 19.7964 194.402C20.2301 195.167 21.9234 196.083 22.7804 196.287C28.5762 197.67 34.0113 198.032 39.6554 196.89C40.9619 196.628 42.0176 196.036 42.9949 195.135C44.4007 193.842 44.9024 192.008 44.986 190.097C45.8797 169.77 46.3814 149.427 46.4911 129.079" stroke="#5A28F5" stroke-width="2" stroke-miterlimit="10" stroke-linecap="round" stroke-linejoin="round"/>
<path d="M55.365 132.154C54.9469 151.176 55.5949 170.225 57.3039 189.18C57.4397 190.673 57.6018 192.228 58.4118 193.485C59.9796 195.921 63.3034 196.366 66.1934 196.392C68.7542 196.413 71.3202 196.298 73.8653 196.036C75.9244 195.827 78.0566 195.491 79.7498 194.302C81.4431 193.113 82.5406 190.825 81.7514 188.908C81.2654 187.735 80.2097 186.928 79.2952 186.048C73.7399 180.706 73.165 172.148 72.9507 164.433C72.6058 152.03 72.2557 139.622 71.9107 127.22" fill="#9661FF"/>
<path d="M55.5194 132.206C55.1013 151.229 55.7493 170.278 57.4582 189.232C57.5941 190.725 57.7561 192.281 58.5661 193.538C60.134 195.973 63.4578 196.418 66.3478 196.445C68.9085 196.466 71.4745 196.35 74.0196 196.088C76.0787 195.879 78.211 195.544 79.9042 194.355C81.5974 193.166 82.6949 190.877 81.9058 188.96C81.4198 187.787 80.3641 186.98 79.4495 186.1C73.8942 180.758 73.3193 172.2 73.1051 164.485C72.7602 152.083 72.41 139.675 72.0651 127.272" stroke="#5A28F5" stroke-width="2" stroke-miterlimit="10" stroke-linecap="round" stroke-linejoin="round"/>
<path d="M98.9034 85.8748C98.9034 85.8748 98.0254 82.2713 97.6126 80.941L81.511 26.79C81.3961 26.2034 81.2654 25.6273 81.1243 25.0512C77.6594 11.3969 65.3729 1.29891 50.7399 1.29891C35.9031 1.29891 23.4807 11.6797 20.2197 25.6221L3.71051 81.4438C3.38649 82.5123 3.08861 83.5964 2.8273 84.6963L2.82208 84.7068C1.82913 88.9021 1.29607 93.3016 1.29607 97.8321C1.29607 127.136 23.4285 147.667 50.7347 147.667C78.0409 147.667 100.168 127.141 100.168 97.8321C100.168 93.7154 99.7291 89.7139 98.9034 85.8748Z" fill="#9661FF"/>
<path fill-rule="evenodd" clip-rule="evenodd" d="M18.9635 25.2877C22.3713 10.7935 35.2945 -0.00309753 50.7397 -0.00309753C65.9858 -0.00309753 78.7764 10.5174 82.383 24.7301L82.3856 24.7406C82.5253 25.3111 82.6565 25.8874 82.7732 26.4771L98.8527 80.5542C98.8535 80.5567 98.8543 80.5593 98.8551 80.5619C99.0734 81.2669 99.403 82.5289 99.6714 83.5854C99.8078 84.1222 99.9311 84.6169 100.02 84.9773C100.065 85.1576 100.101 85.3044 100.126 85.4063L100.162 85.5549L100.164 85.5629L100.165 85.5655C100.165 85.5656 100.165 85.5658 98.9032 85.8746L100.165 85.5655C100.168 85.577 100.17 85.5887 100.173 85.6003C101.018 89.5288 101.467 93.6222 101.467 97.8319C101.467 127.883 78.7346 148.969 50.7345 148.969C22.7345 148.969 -0.00306702 127.878 -0.00306702 97.8319C-0.00306702 93.1989 0.54207 88.6986 1.55802 84.4061C1.56457 84.3784 1.57202 84.351 1.58035 84.3239C1.84412 83.2207 2.14289 82.1358 2.46611 81.0697C2.46658 81.0681 2.46704 81.0666 2.46751 81.0651L18.9635 25.2877ZM97.6371 86.1661L97.6033 86.028C97.5787 85.9276 97.543 85.7825 97.4988 85.6042C97.4105 85.2473 97.2885 84.758 97.1538 84.2277C96.881 83.1538 96.5666 81.9543 96.372 81.3274L96.3675 81.3126L80.266 27.1616C80.2542 27.1218 80.2442 27.0815 80.2363 27.0407C80.1265 26.4807 80.0011 25.9268 79.864 25.3669C76.5391 12.2735 64.7579 2.60049 50.7397 2.60049C36.5244 2.60049 24.6118 12.5471 21.4841 25.9189C21.4784 25.9434 21.472 25.9677 21.4649 25.9918L4.9557 81.8135L4.95313 81.8221C4.63576 82.8687 4.34508 83.927 4.09073 84.9976C4.08443 85.0242 4.07731 85.0504 4.06937 85.0765C3.10993 89.1537 2.59481 93.4289 2.59481 97.8319C2.59481 126.394 24.1221 146.365 50.7345 146.365C77.3468 146.365 98.869 126.399 98.869 97.8319C98.869 93.8143 98.4412 89.9106 97.6371 86.1661Z" fill="#5A28F5"/>
<path d="M44.4112 34.154C44.4112 35.6729 43.183 36.909 41.6622 36.909C40.1467 36.909 38.9133 35.6781 38.9133 34.154C38.9133 32.6351 40.1415 31.3991 41.6622 31.3991C43.183 31.3991 44.4112 32.6351 44.4112 34.154Z" fill="#1D1D1B"/>
<path d="M62.5508 34.154C62.5508 35.6729 61.3227 36.909 59.8019 36.909C58.2864 36.909 57.053 35.6781 57.053 34.154C57.053 32.6351 58.2811 31.3991 59.8019 31.3991C61.3227 31.3991 62.5508 32.6351 62.5508 34.154Z" fill="#1D1D1B"/>
<path d="M59.4727 41.6228C59.4727 45.7185 55.5584 49.0391 50.7347 49.0391C45.911 49.0391 41.9967 45.7185 41.9967 41.6228H59.4727Z" fill="#C7B8F6"/>
</g>
<defs>
<clipPath id="clip0_1_352">
<rect width="101.469" height="198.88" fill="white"/>
</clipPath>
</defs>
</svg>
