<svg width="102" height="199" viewBox="0 0 102 199" fill="none" xmlns="http://www.w3.org/2000/svg">
<g clip-path="url(#clip0_1_370)">
<path d="M30.0081 130.289C30.5673 141.037 31.1317 151.789 31.6909 162.537C32.1299 170.985 32.224 180.449 26.4491 186.619C24.296 188.923 20.136 191.657 21.6934 194.402C22.1272 195.167 23.8204 196.083 24.6775 196.287C30.4732 197.67 35.9083 198.032 41.5525 196.89C42.859 196.628 43.9147 196.036 44.8919 195.135C46.2978 193.842 46.7995 192.008 46.8831 190.097C47.7767 169.77 48.2784 149.427 48.3882 129.079" fill="#2EE1AB"/>
<path fill-rule="evenodd" clip-rule="evenodd" d="M48.3952 127.777C49.1126 127.781 49.691 128.367 49.6871 129.086C49.5773 149.451 49.0752 169.81 48.1808 190.154C48.09 192.229 47.5374 194.468 45.7713 196.093C44.6448 197.132 43.3794 197.851 41.8072 198.166C35.9373 199.353 30.3077 198.969 24.377 197.554C23.7738 197.41 23.0096 197.061 22.3603 196.672C22.0247 196.471 21.6851 196.239 21.3857 195.986C21.1011 195.746 20.7822 195.429 20.5643 195.045C19.9801 194.016 19.9374 192.956 20.2334 191.975C20.5132 191.048 21.0852 190.216 21.6899 189.503C22.3018 188.781 23.0259 188.091 23.6939 187.468C23.799 187.37 23.9025 187.274 24.004 187.18C24.57 186.654 25.078 186.182 25.501 185.729L25.5018 185.728C28.1499 182.899 29.4969 179.271 30.1163 175.234C30.7376 171.186 30.6131 166.826 30.3937 162.604C30.1142 157.232 29.8333 151.858 29.5525 146.484L29.5523 146.481C29.2714 141.106 28.9905 135.731 28.7109 130.357C28.6736 129.639 29.224 129.027 29.9405 128.989C30.6569 128.952 31.2679 129.503 31.3053 130.221C31.5848 135.594 31.8657 140.969 32.1466 146.343L32.1467 146.345C32.4276 151.72 32.7085 157.095 32.9881 162.469L32.9881 162.469C33.2077 166.696 33.3497 171.292 32.684 175.63C32.0165 179.98 30.5232 184.169 27.3965 187.51C26.905 188.035 26.3177 188.581 25.7558 189.103C25.6573 189.194 25.5597 189.285 25.4635 189.374C24.7946 189.998 24.1724 190.595 23.6698 191.188C23.16 191.79 22.8495 192.3 22.72 192.729C22.6068 193.104 22.6281 193.416 22.8225 193.758L22.8226 193.759C22.8226 193.758 22.8227 193.759 22.823 193.759C22.8279 193.766 22.8867 193.849 23.0586 193.994C23.2254 194.135 23.4441 194.288 23.6932 194.437C24.2132 194.749 24.7241 194.96 24.978 195.021L24.9783 195.021C30.6381 196.371 35.878 196.71 41.2955 195.614L41.2977 195.613C42.3386 195.405 43.1846 194.94 44.0126 194.177L44.0134 194.176C45.0583 193.215 45.5089 191.788 45.5854 190.04L45.5854 190.039C46.4783 169.729 46.9796 149.403 47.0893 129.072C47.0931 128.353 47.6778 127.774 48.3952 127.777Z" fill="#5A28F5"/>
<path d="M57.5077 133.337C57.0896 152.36 57.7376 171.409 59.4466 190.364C59.5824 191.856 59.7444 193.412 60.5545 194.669C62.1223 197.104 65.4461 197.55 68.3361 197.576C70.8969 197.597 73.4577 197.482 76.008 197.22C78.067 197.01 80.1993 196.675 81.8925 195.486C83.5858 194.297 84.6833 192.008 83.8941 190.091C83.4081 188.918 82.3524 188.112 81.4379 187.232C75.8826 181.889 75.3077 173.331 75.0934 165.616C74.7485 153.214 74.3983 140.806 74.0534 128.404" fill="#2EE1AB"/>
<path d="M57.5077 133.337C57.0896 152.36 57.7376 171.409 59.4466 190.364C59.5824 191.856 59.7444 193.412 60.5545 194.669C62.1223 197.104 65.4461 197.55 68.3361 197.576C70.8969 197.597 73.4577 197.482 76.008 197.22C78.067 197.01 80.1993 196.675 81.8925 195.486C83.5858 194.297 84.6833 192.008 83.8941 190.091C83.4081 188.918 82.3524 188.112 81.4379 187.232C75.8826 181.889 75.3077 173.331 75.0934 165.616C74.7485 153.214 74.3983 140.806 74.0534 128.404" stroke="#5A28F5" stroke-width="2" stroke-miterlimit="10" stroke-linecap="round" stroke-linejoin="round"/>
<path d="M98.9034 85.8748C98.9034 85.8748 98.0254 82.2713 97.6125 80.941L81.511 26.79C81.3961 26.2034 81.2654 25.6273 81.1243 25.0512C77.6594 11.3969 65.3729 1.29891 50.7399 1.29891C35.9031 1.29891 23.4807 11.6797 20.2197 25.6221L3.71051 81.4438C3.38649 82.5123 3.08861 83.5964 2.82731 84.6963V84.7068C1.83435 88.9021 1.30129 93.3016 1.30129 97.8321C1.30129 127.136 23.4337 147.667 50.7399 147.667C78.0461 147.667 100.173 127.141 100.173 97.8321C100.168 93.7154 99.7291 89.7139 98.9034 85.8748Z" fill="#2EE1AB"/>
<path fill-rule="evenodd" clip-rule="evenodd" d="M18.9638 25.2877C22.3717 10.7936 35.2949 -0.00305939 50.74 -0.00305939C65.9861 -0.00305939 78.7767 10.5175 82.3833 24.7301L82.3859 24.7407C82.5256 25.3112 82.6568 25.8874 82.7736 26.4771L98.853 80.5542C98.8538 80.5568 98.8546 80.5594 98.8554 80.562C99.0737 81.267 99.4033 82.5289 99.6717 83.5854C99.8081 84.1223 99.9314 84.617 100.021 84.9774C100.065 85.1576 100.101 85.3044 100.126 85.4063L100.163 85.5549L100.165 85.5629L100.165 85.5656C100.165 85.5656 100.165 85.5658 98.9035 85.8746L100.165 85.5656C100.168 85.577 100.171 85.5888 100.173 85.6003C101.018 89.5288 101.467 93.6217 101.472 97.8303V97.8319C101.472 127.883 78.7402 148.969 50.74 148.969C22.74 148.969 0.00247574 127.878 0.00247574 97.8319C0.00247574 93.2233 0.541878 88.746 1.54753 84.4741C1.55213 84.4474 1.55756 84.421 1.56381 84.3946C1.83168 83.2671 2.1363 82.1586 2.46643 81.0697C2.46689 81.0682 2.46736 81.0666 2.46782 81.0651L18.9638 25.2877ZM97.6375 86.1662L97.6036 86.028C97.579 85.9276 97.5433 85.7826 97.4992 85.6042C97.4108 85.2474 97.2889 84.7581 97.1541 84.2278C96.8813 83.1538 96.5669 81.9543 96.3723 81.3275L96.3678 81.3126L80.2663 27.1616C80.2545 27.1218 80.2446 27.0815 80.2366 27.0408C80.1268 26.4807 80.0014 25.9269 79.8643 25.3669C76.5394 12.2735 64.7583 2.60052 50.74 2.60052C36.5248 2.60052 24.6121 12.5471 21.4844 25.919C21.4787 25.9434 21.4723 25.9677 21.4652 25.9918L4.95602 81.8136L4.95344 81.8222C4.64265 82.847 4.35746 83.8832 4.1069 84.9312C4.10245 84.9566 4.09726 84.9819 4.0913 85.0071C3.12134 89.1052 2.60036 93.4039 2.60036 97.8319C2.60036 126.394 24.1276 146.365 50.74 146.365C77.3519 146.365 98.8737 126.4 98.8745 97.8336C98.8694 93.8149 98.4415 89.9106 97.6375 86.1662Z" fill="#5A28F5"/>
<path d="M44.5575 35.1544C44.5575 35.9034 43.9513 36.5109 43.2039 36.5109C42.4566 36.5109 41.8504 35.9034 41.8504 35.1544C41.8504 34.4054 42.4566 33.7979 43.2039 33.7979C43.9513 33.8031 44.5575 34.4107 44.5575 35.1544Z" fill="#1D1D1B"/>
<path d="M59.6138 35.1544C59.6138 35.9034 59.0076 36.5109 58.2602 36.5109C57.5129 36.5109 56.9067 35.9034 56.9067 35.1544C56.9067 34.4054 57.5129 33.7979 58.2602 33.7979C59.0128 33.8031 59.6138 34.4107 59.6138 35.1544Z" fill="#1D1D1B"/>
<path fill-rule="evenodd" clip-rule="evenodd" d="M22.8128 15.7133C13.3436 19.6442 8.84699 30.5241 12.7693 40.0141C16.6917 49.5041 27.5477 54.0106 37.0169 50.0796C46.4862 46.1486 50.9828 35.2688 47.0604 25.7788C43.138 16.2888 32.282 11.7823 22.8128 15.7133ZM12.0837 40.2987C8.00451 30.4292 12.6809 19.1143 22.5288 15.0261C32.3767 10.938 43.6668 15.6247 47.746 25.4942C51.8252 35.3637 47.1488 46.6786 37.3009 50.7667C27.4531 54.8549 16.1629 50.1682 12.0837 40.2987Z" fill="#5A28F5"/>
<path fill-rule="evenodd" clip-rule="evenodd" d="M64.4553 15.7143C54.9861 19.6452 50.4895 30.5251 54.4119 40.0151C58.3342 49.5051 69.1902 54.0116 78.6594 50.0806C88.1287 46.1496 92.6253 35.2698 88.7029 25.7798C84.7806 16.2898 73.9245 11.7833 64.4553 15.7143ZM53.7262 40.2997C49.647 30.4302 54.3234 19.1153 64.1713 15.0271C74.0192 10.939 85.3093 15.6256 89.3885 25.4951C93.4677 35.3646 88.7913 46.6796 78.9434 50.7677C69.0956 54.8559 57.8054 50.1692 53.7262 40.2997Z" fill="#5A28F5"/>
<path fill-rule="evenodd" clip-rule="evenodd" d="M52.6318 34.2064H48.8376V33.4627H52.6318V34.2064Z" fill="#5A28F5"/>
</g>
<defs>
<clipPath id="clip0_1_370">
<rect width="101.469" height="198.88" fill="white"/>
</clipPath>
</defs>
</svg>
