<svg width="214" height="208" viewBox="0 0 214 208" fill="none" xmlns="http://www.w3.org/2000/svg">
<path d="M102.587 207.997C143.012 207.997 175.784 175.201 175.784 134.745C175.784 94.2882 143.012 61.4919 102.587 61.4919C62.1618 61.4919 29.3906 94.2882 29.3906 134.745C29.3906 175.201 62.1618 207.997 102.587 207.997Z" fill="#9661FF"/>
<mask id="mask0_1_395" style="mask-type:luminance" maskUnits="userSpaceOnUse" x="29" y="61" width="147" height="147">
<path d="M102.589 207.995C143.014 207.995 175.786 175.199 175.786 134.743C175.786 94.2865 143.014 61.4902 102.589 61.4902C62.1638 61.4902 29.3926 94.2865 29.3926 134.743C29.3926 175.199 62.1638 207.995 102.589 207.995Z" fill="white"/>
</mask>
<g mask="url(#mask0_1_395)">
<path d="M162.227 167.339C162.227 167.339 161.153 162.936 160.646 161.304L140.931 95.0794C140.789 94.3646 140.631 93.6553 140.456 92.9514C136.214 76.2548 121.166 63.9069 103.245 63.9069C85.323 63.9069 69.8604 76.604 65.8639 93.6553L45.6469 161.921C45.2489 163.23 44.8891 164.556 44.5674 165.898V165.909C43.3461 171.044 42.6973 176.418 42.6973 181.957C42.6973 217.795 69.8059 242.9 103.239 242.9C136.672 242.9 163.781 217.795 163.781 181.957C163.781 176.926 163.241 172.031 162.227 167.333V167.339Z" fill="#FFFF3E" stroke="#5A28F5" stroke-width="3" stroke-linecap="round" stroke-linejoin="round"/>
<path d="M160.64 161.304L149.353 123.409C137.064 131.801 120.925 136.903 103.233 136.903C85.5403 136.903 69.3471 131.785 57.0522 123.371L45.6352 161.92C45.2372 163.23 44.8774 164.556 44.5557 165.898V165.909C43.3344 171.044 42.6855 176.418 42.6855 181.956C42.6855 193.988 45.7497 204.803 51.0766 213.871C66.4519 221.21 84.2535 225.406 103.233 225.406C122.212 225.406 140.008 221.21 155.389 213.871C160.711 204.803 163.78 193.988 163.78 181.956C163.78 176.926 163.24 172.037 162.226 167.333C162.226 167.333 161.152 162.93 160.645 161.298L160.64 161.304Z" fill="#6F14DC" stroke="#5A28F5" stroke-width="3" stroke-linecap="round" stroke-linejoin="round"/>
<path d="M65.285 163.463C65.285 163.463 59.8491 168.112 58.0663 169.967C51.7853 176.52 43.8577 184.994 40.0684 193.173C38.22 197.162 36.5407 205.723 29.7472 202.837C25.7562 201.14 25.1892 196.916 25.2873 193.173C25.3255 191.853 25.4345 190.532 25.609 189.223C27.9753 171.402 43.9776 148.436 57.3847 137.212L65.285 163.458V163.463Z" fill="#FFFF3E" stroke="#5A28F5" stroke-width="3" stroke-linecap="round" stroke-linejoin="round"/>
<path d="M96.2976 103.542C96.2976 106.652 93.7786 109.178 90.6654 109.178C87.5521 109.178 85.0332 106.657 85.0332 103.542H96.2976Z" fill="#1F201D"/>
<path d="M122.969 103.542C122.969 106.652 120.45 109.178 117.337 109.178C114.224 109.178 111.705 106.658 111.705 103.542H122.969Z" fill="#1F201D"/>
<path d="M100.693 118.456H107.313" stroke="#1F201D" stroke-width="3.29" stroke-linecap="round" stroke-linejoin="round"/>
</g>
<path d="M75.8438 160.686C75.8438 159.523 76.2527 158.536 77.076 157.712C77.8993 156.888 78.8861 156.479 80.0474 156.479C81.2088 156.479 82.1956 156.888 83.0189 157.712C83.8422 158.536 84.2511 159.523 84.2511 160.686C84.2511 161.848 83.8422 162.835 83.0189 163.659C82.1956 164.483 81.2088 164.892 80.0474 164.892C78.8861 164.892 77.8993 164.483 77.076 163.659C76.2527 162.835 75.8438 161.848 75.8438 160.686ZM76.4217 168.084H83.6677V191.58H76.4217V168.084Z" fill="white"/>
<path d="M89.4688 168.085H96.7148V191.581H89.4688V168.085Z" fill="white"/>
<path d="M102.99 168.085H110.236V191.581H102.99V168.085Z" fill="white"/>
<path d="M115.455 160.686C115.455 159.523 115.864 158.536 116.687 157.712C117.511 156.888 118.497 156.479 119.659 156.479C120.82 156.479 121.807 156.888 122.63 157.712C123.454 158.536 123.862 159.523 123.862 160.686C123.862 161.848 123.454 162.835 122.63 163.659C121.807 164.483 120.82 164.892 119.659 164.892C118.497 164.892 117.511 164.483 116.687 163.659C115.864 162.835 115.455 161.848 115.455 160.686ZM116.033 168.084H123.279V191.58H116.033V168.084Z" fill="white"/>
<path d="M163.184 86.9469C163.996 84.092 153.941 78.7257 140.726 74.9609C127.511 71.1961 116.14 70.4584 115.328 73.3133C114.516 76.1682 124.57 81.5345 137.785 85.2993C151.001 89.0641 162.372 89.8017 163.184 86.9469Z" fill="#FF0068" stroke="#5A28F5" stroke-width="3" stroke-linecap="round" stroke-linejoin="round"/>
<path d="M118.894 48.7083C103.677 44.3705 87.6578 53.7719 83.127 69.7101L90.3457 71.7672C91.9051 66.7527 97.0029 63.8172 101.855 65.2031C106.708 66.5836 109.494 71.7672 108.18 76.8526L138.244 85.4192C142.78 69.4864 134.116 53.0516 118.894 48.7138V48.7083Z" fill="#FF0068" stroke="#5A28F5" stroke-width="3" stroke-linecap="round" stroke-linejoin="round"/>
<path d="M90.3457 71.7787L108.191 76.8526" stroke="#5A28F5" stroke-width="3" stroke-linecap="round" stroke-linejoin="round"/>
<path d="M179.761 129.364C178.594 135.885 173.202 139.153 167.788 138.187C162.373 137.216 158.72 132.332 159.882 125.812C161.043 119.292 163.404 113.218 172.008 114.572C179.99 115.827 180.928 122.849 179.761 129.37V129.364Z" fill="#FFFF3E" stroke="#5A28F5" stroke-width="3" stroke-linecap="round" stroke-linejoin="round"/>
<path d="M180.564 153.039C178.323 165.578 167.953 171.858 157.544 169.998C147.136 168.137 140.108 158.741 142.349 146.202C144.59 133.663 149.126 121.992 165.657 124.589C181 127.001 182.805 140.5 180.564 153.039Z" fill="#FFFF3E" stroke="#5A28F5" stroke-width="3" stroke-linecap="round" stroke-linejoin="round"/>
<path d="M103.65 1V38.1747" stroke="#B789ED" stroke-width="2" stroke-linecap="round" stroke-linejoin="round"/>
<path d="M77.8496 7.44409L88.4979 42.2616" stroke="#B789ED" stroke-width="2" stroke-linecap="round" stroke-linejoin="round"/>
<path d="M57.5391 21.8501L74.163 53.7975" stroke="#B789ED" stroke-width="2" stroke-linecap="round" stroke-linejoin="round"/>
<path d="M36.3516 18.7052L61.6555 51.16" stroke="#B789ED" stroke-width="2" stroke-linecap="round" stroke-linejoin="round"/>
<path d="M12.6934 70.7659L30.266 80.2819" stroke="#B789ED" stroke-width="2" stroke-linecap="round" stroke-linejoin="round"/>
<path d="M12.166 49.6658L43.7673 73.2976" stroke="#B789ED" stroke-width="2" stroke-linecap="round" stroke-linejoin="round"/>
<path d="M33.5332 49.5291L45.5609 63.3284" stroke="#B789ED" stroke-width="2" stroke-linecap="round" stroke-linejoin="round"/>
<path d="M35.0056 31.6702C32.9174 31.6975 31.1891 29.1602 31.1509 26.001C31.1945 29.1602 29.5316 31.7411 27.4434 31.7684H27.4815H27.4652C27.4979 31.7684 27.5251 31.7684 27.5579 31.7684H27.6942C29.6788 31.9267 31.2817 34.393 31.3254 37.4322C31.2872 34.4966 32.7157 32.0631 34.5913 31.7084L35.0111 31.6593L35.0056 31.6702Z" fill="white" stroke="#B789ED" stroke-width="2" stroke-linecap="round" stroke-linejoin="round"/>
<path d="M119.484 28.4303C117.439 28.4575 115.744 25.9694 115.705 22.8756C115.744 25.9694 114.119 28.5012 112.074 28.5285H112.112H112.096C112.129 28.5285 112.156 28.5285 112.183 28.5285H112.32C114.266 28.6813 115.836 31.0985 115.874 34.0831C115.836 31.2076 117.237 28.8231 119.08 28.4739L119.489 28.4248L119.484 28.4303Z" fill="white" stroke="#B789ED" stroke-width="2" stroke-linecap="round" stroke-linejoin="round"/>
<path d="M20.7583 92.827C17.2361 92.8706 14.3246 88.5928 14.2537 83.2673C14.3246 88.5928 11.5222 92.947 8 92.9962H8.05997H8.03271C8.08178 92.9962 8.13631 92.9962 8.18538 92.9962L8.41437 93.0071C11.7621 93.2635 14.4664 97.4213 14.5373 102.55C14.4718 97.6014 16.8817 93.4981 20.0495 92.9034L20.7583 92.8215V92.827Z" fill="white" stroke="#B789ED" stroke-width="2" stroke-linecap="round" stroke-linejoin="round"/>
<path d="M140.347 9.33691L126.504 43.265" stroke="#B789ED" stroke-width="2" stroke-linecap="round" stroke-linejoin="round"/>
<path d="M148.2 22.2759L137.191 38.7106" stroke="#B789ED" stroke-width="2" stroke-linecap="round" stroke-linejoin="round"/>
<path d="M179.264 18.9083L153.219 47.1835" stroke="#B789ED" stroke-width="2" stroke-linecap="round" stroke-linejoin="round"/>
<path d="M179.485 40.1979L155.135 59.3118" stroke="#B789ED" stroke-width="2" stroke-linecap="round" stroke-linejoin="round"/>
<path d="M196.921 57.9929L171.846 72.758" stroke="#B789ED" stroke-width="2" stroke-linecap="round" stroke-linejoin="round"/>
<path d="M189.679 79.0598L173.693 85.0012" stroke="#B789ED" stroke-width="2" stroke-linecap="round" stroke-linejoin="round"/>
<path d="M195.438 82.4818C198.082 82.5255 200.274 79.3171 200.334 75.323C200.268 79.3171 202.362 82.591 205.001 82.6292H204.957H204.979C204.941 82.6292 204.903 82.6292 204.864 82.6292H204.69C202.176 82.8201 200.143 85.9358 200.083 89.7825C200.143 86.0722 198.344 82.9893 195.966 82.5364L195.438 82.4764V82.4818Z" fill="white" stroke="#B789ED" stroke-width="2" stroke-linecap="round" stroke-linejoin="round"/>
<path d="M183.992 27.5675C187.024 27.6166 189.537 23.939 189.613 19.3556C189.543 23.939 191.942 27.693 194.973 27.7367H194.918H194.94C194.897 27.7367 194.853 27.7367 194.809 27.7367H194.613C191.734 27.9604 189.395 31.5289 189.324 35.9431C189.39 31.6871 187.324 28.1459 184.603 27.6275L183.998 27.5566L183.992 27.5675Z" fill="white" stroke="#B789ED" stroke-width="2" stroke-linecap="round" stroke-linejoin="round"/>
</svg>
