<svg width="103" height="200" viewBox="0 0 103 200" fill="none" xmlns="http://www.w3.org/2000/svg">
<g clip-path="url(#clip0_1_326)">
<path d="M28.0983 130.761C28.6575 141.509 29.2219 152.262 29.7811 163.009C30.2201 171.458 30.3089 180.927 24.5393 187.092C22.3861 189.396 18.2261 192.13 19.7835 194.875C20.2173 195.64 21.9105 196.556 22.7676 196.76C28.5634 198.143 33.9986 198.505 39.6428 197.363C40.9493 197.101 42.005 196.509 42.9823 195.608C44.3881 194.315 44.8898 192.481 44.9734 190.57C45.8671 170.242 46.3688 149.9 46.4786 129.552" fill="#FFFF3E"/>
<path d="M28.0983 130.761C28.6575 141.509 29.2219 152.262 29.7811 163.009C30.2201 171.458 30.3089 180.927 24.5393 187.092C22.3861 189.396 18.2261 192.13 19.7835 194.875C20.2173 195.64 21.9105 196.556 22.7676 196.76C28.5634 198.143 33.9986 198.505 39.6428 197.363C40.9493 197.101 42.005 196.509 42.9823 195.608C44.3881 194.315 44.8898 192.481 44.9734 190.57C45.8671 170.242 46.3688 149.9 46.4786 129.552" stroke="#5A28F5" stroke-width="2" stroke-miterlimit="10" stroke-linecap="round" stroke-linejoin="round"/>
<path d="M55.3525 132.626C54.9344 151.649 55.5825 170.698 57.2914 189.653C57.4273 191.146 57.5893 192.701 58.3994 193.958C59.9672 196.394 63.291 196.839 66.1811 196.865C68.7419 196.886 71.3079 196.771 73.853 196.509C75.9121 196.3 78.0444 195.964 79.7377 194.775C81.4309 193.586 82.5284 191.298 81.7393 189.381C81.2532 188.207 80.1976 187.401 79.283 186.521C73.7276 181.179 73.1527 172.62 72.9385 164.905C72.5935 152.503 72.2434 140.095 71.8985 127.692" fill="#FFFF3E"/>
<path d="M55.3525 132.626C54.9344 151.649 55.5825 170.698 57.2914 189.653C57.4273 191.146 57.5893 192.701 58.3994 193.958C59.9672 196.394 63.291 196.839 66.1811 196.865C68.7419 196.886 71.3079 196.771 73.853 196.509C75.9121 196.3 78.0444 195.964 79.7377 194.775C81.4309 193.586 82.5284 191.298 81.7393 189.381C81.2532 188.207 80.1976 187.401 79.283 186.521C73.7276 181.179 73.1527 172.62 72.9385 164.905C72.5935 152.503 72.2434 140.095 71.8985 127.692" stroke="#5A28F5" stroke-width="2" stroke-miterlimit="10" stroke-linecap="round" stroke-linejoin="round"/>
<path d="M99.4924 86.3465C99.4924 86.3465 98.6145 82.743 98.2016 81.4127L82.0999 27.261C81.9849 26.6744 81.8542 26.0983 81.7131 25.5222C78.2482 11.8677 65.9616 1.76962 51.3284 1.76962C36.4914 1.76962 24.0689 12.1506 20.8078 26.0931L4.29845 81.9155C3.97443 82.9839 3.67654 84.0681 3.41523 85.168L3.41 85.1785C2.41704 89.3738 1.88397 93.7734 1.88397 98.3039C1.88397 127.608 24.0166 148.14 51.3232 148.14C78.6297 148.14 100.757 127.614 100.757 98.3039C100.757 94.1872 100.318 90.1856 99.4924 86.3465Z" fill="#FFFF3E"/>
<path fill-rule="evenodd" clip-rule="evenodd" d="M19.5516 25.7587C22.9595 11.2644 35.8829 0.467621 51.3282 0.467621C66.5744 0.467621 79.3652 10.9883 82.9719 25.2011L82.9745 25.2116C83.1142 25.7821 83.2453 26.3584 83.3621 26.9481L99.4418 81.0258C99.4426 81.0284 99.4434 81.031 99.4442 81.0336C99.6625 81.7386 99.9921 83.0006 100.26 84.0571C100.397 84.5939 100.52 85.0886 100.609 85.449C100.654 85.6293 100.69 85.7761 100.715 85.878L100.752 86.0266L100.753 86.0346L100.754 86.0373C100.754 86.0373 100.754 86.0375 99.4923 86.3463L100.754 86.0373C100.757 86.0487 100.76 86.0604 100.762 86.072C101.607 90.0005 102.056 94.094 102.056 98.3037C102.056 128.356 79.3234 149.441 51.323 149.441C23.3227 149.441 0.584839 128.351 0.584839 98.3037C0.584839 93.6707 1.12998 89.1703 2.14594 84.8778C2.15249 84.8502 2.15994 84.8227 2.16828 84.7956C2.43205 83.6924 2.73082 82.6075 3.05405 81.5413C3.05451 81.5398 3.05498 81.5383 3.05544 81.5367L19.5516 25.7587ZM98.2262 86.6379L98.1924 86.4997C98.1677 86.3993 98.132 86.2542 98.0879 86.0759C97.9996 85.719 97.8776 85.2297 97.7429 84.6995C97.47 83.6255 97.1556 82.426 96.9611 81.7991L96.9566 81.7842L80.8548 27.6326C80.843 27.5928 80.8331 27.5525 80.8251 27.5118C80.7153 26.9517 80.5899 26.3978 80.4528 25.8379C77.1279 12.7444 65.3466 3.07123 51.3282 3.07123C37.1128 3.07123 25.2 13.0179 22.0723 26.39C22.0666 26.4144 22.0601 26.4387 22.053 26.4628L5.54367 82.2852L5.54109 82.2938C5.22372 83.3404 4.93304 84.3987 4.67868 85.4694C4.67238 85.4959 4.66526 85.5221 4.65733 85.5482C3.69787 89.6255 3.18275 93.9007 3.18275 98.3037C3.18275 126.866 24.7103 146.838 51.323 146.838C77.9356 146.838 99.458 126.871 99.458 98.3037C99.458 94.2861 99.0303 90.3824 98.2262 86.6379Z" fill="#5A28F5"/>
<path d="M45.0309 34.1747C45.0309 36.7202 42.9718 38.7838 40.4319 38.7838C37.892 38.7838 35.8329 36.7202 35.8329 34.1747H45.0309Z" fill="#1D1D1B"/>
<path d="M66.8187 34.1747C66.8187 36.7202 64.7596 38.7838 62.2197 38.7838C59.6798 38.7838 57.6207 36.7202 57.6207 34.1747H66.8187Z" fill="#1D1D1B"/>
<path fill-rule="evenodd" clip-rule="evenodd" d="M47.8792 46.3783C47.8792 45.9676 48.2114 45.6346 48.6213 45.6346H54.0251C54.435 45.6346 54.7672 45.9676 54.7672 46.3783C54.7672 46.7891 54.435 47.1221 54.0251 47.1221H48.6213C48.2114 47.1221 47.8792 46.7891 47.8792 46.3783Z" fill="#1D1D1B"/>
</g>
<defs>
<clipPath id="clip0_1_326">
<rect width="101.471" height="198.882" fill="white" transform="translate(0.587891 0.470703)"/>
</clipPath>
</defs>
</svg>
